<svg width="9" height="9" viewBox="0 0 9 9" fill="none" xmlns="http://www.w3.org/2000/svg">
<path d="M2.41667 0H5.91667C7.25 0 8.33333 1.09393 8.33333 2.44031V5.97456C8.33333 6.62177 8.07872 7.24247 7.62551 7.70012C7.1723 8.15777 6.55761 8.41487 5.91667 8.41487H2.41667C1.08333 8.41487 0 7.32094 0 5.97456V2.44031C0 1.7931 0.254612 1.1724 0.707825 0.714751C1.16104 0.257104 1.77573 0 2.41667 0ZM2.33333 0.841487C1.93551 0.841487 1.55398 1.00107 1.27267 1.28513C0.991369 1.56918 0.833333 1.95445 0.833333 2.35616V6.05871C0.833333 6.89599 1.50417 7.57339 2.33333 7.57339H6C6.39782 7.57339 6.77936 7.4138 7.06066 7.12975C7.34196 6.84569 7.5 6.46043 7.5 6.05871V2.35616C7.5 1.51888 6.82917 0.841487 6 0.841487H2.33333ZM6.35417 1.4726C6.4923 1.4726 6.62478 1.52801 6.72245 1.62664C6.82013 1.72527 6.875 1.85905 6.875 1.99853C6.875 2.13802 6.82013 2.27179 6.72245 2.37042C6.62478 2.46905 6.4923 2.52446 6.35417 2.52446C6.21603 2.52446 6.08356 2.46905 5.98588 2.37042C5.88821 2.27179 5.83333 2.13802 5.83333 1.99853C5.83333 1.85905 5.88821 1.72527 5.98588 1.62664C6.08356 1.52801 6.21603 1.4726 6.35417 1.4726ZM4.16667 2.10372C4.7192 2.10372 5.2491 2.32536 5.63981 2.71988C6.03051 3.11441 6.25 3.6495 6.25 4.20744C6.25 4.76538 6.03051 5.30047 5.63981 5.69499C5.2491 6.08951 4.7192 6.31115 4.16667 6.31115C3.61413 6.31115 3.08423 6.08951 2.69353 5.69499C2.30283 5.30047 2.08333 4.76538 2.08333 4.20744C2.08333 3.6495 2.30283 3.11441 2.69353 2.71988C3.08423 2.32536 3.61413 2.10372 4.16667 2.10372ZM4.16667 2.94521C3.83515 2.94521 3.5172 3.07819 3.28278 3.3149C3.04836 3.55162 2.91667 3.87267 2.91667 4.20744C2.91667 4.5422 3.04836 4.86325 3.28278 5.09997C3.5172 5.33668 3.83515 5.46967 4.16667 5.46967C4.49819 5.46967 4.81613 5.33668 5.05055 5.09997C5.28497 4.86325 5.41667 4.5422 5.41667 4.20744C5.41667 3.87267 5.28497 3.55162 5.05055 3.3149C4.81613 3.07819 4.49819 2.94521 4.16667 2.94521Z" fill="white"/>
</svg>
