<svg width="20" height="21" viewBox="0 0 20 21" fill="none" xmlns="http://www.w3.org/2000/svg">
<path d="M7.42421 19.8947H2.1212C0.943935 19.8947 0 18.9111 0 17.6842V2.21053C0 0.983684 0.943935 0 2.1212 0H16.9696C18.1469 0 19.0908 0.983684 19.0908 2.21053V8.10158C18.7726 7.96895 18.4227 7.89158 18.0727 7.89158C17.6802 7.89158 17.309 7.98 16.9696 8.14579V2.21053H2.1212V17.6842H7.54088L7.42421 17.8058V19.8947ZM4.24241 6.63158H14.8484V4.42105H4.24241V6.63158ZM4.24241 15.4737H9.66208L11.6666 13.3958V13.2632H4.24241V15.4737ZM4.24241 11.0526H13.9151L14.8484 10.08V8.8421H4.24241V11.0526ZM19.8333 11.6937L18.4757 10.2789C18.3666 10.1676 18.22 10.1052 18.0673 10.1052C17.9147 10.1052 17.7681 10.1676 17.659 10.2789L16.5984 11.3842L18.7726 13.65L19.8333 12.5447C19.9401 12.4311 20 12.2783 20 12.1192C20 11.9601 19.9401 11.8073 19.8333 11.6937ZM9.54541 21H11.7303L18.1469 14.2911L15.9727 12.0253L9.54541 18.7232V21Z" fill="#D01443"/>
</svg>
