<svg width="72" height="58" viewBox="0 0 72 58" fill="none" xmlns="http://www.w3.org/2000/svg">
<path d="M71.8747 21.2014L69.9716 18.0131C69.886 17.8725 69.746 17.7702 69.582 17.7283C69.418 17.6865 69.2434 17.7086 69.0963 17.7898L65.0251 20.0693L58.7375 3.41933C58.4056 2.42583 57.753 1.55922 56.874 0.944613C55.995 0.330008 54.935 -0.000782977 53.8472 1.3917e-06H19.053C16.2665 1.3917e-06 13.7933 1.72507 12.9341 4.27416L6.94363 20.077L2.86436 17.7975C2.71729 17.7163 2.5427 17.6942 2.3787 17.736C2.21471 17.7779 2.07464 17.8802 1.98909 18.0208L0.0859608 21.2014C-0.0907006 21.494 0.0136903 21.8637 0.318833 22.0331L5.16899 24.7439L4.00463 27.8244C3.90827 28.0708 3.86009 28.3327 3.86009 28.5945V55.4101C3.86009 56.6192 4.80764 57.5972 5.972 57.5972H11.4003C12.388 57.5972 13.2472 56.881 13.456 55.8799L14.0743 52.9765H57.8863L58.5047 55.8799C58.7215 56.881 59.5727 57.5972 60.5604 57.5972H65.9887C67.153 57.5972 68.1006 56.6192 68.1006 55.4101V28.5945C68.1006 28.3327 68.0524 28.0708 67.956 27.8244L66.7917 24.7439L71.6338 22.0331C71.7796 21.9524 71.8865 21.82 71.9315 21.6645C71.9766 21.5089 71.9562 21.3426 71.8747 21.2014ZM16.0658 37.1891C14.2911 37.1891 12.8538 35.8105 12.8538 34.1086C12.8538 32.4066 14.2911 31.0281 16.0658 31.0281C17.8404 31.0281 19.2778 32.4066 19.2778 34.1086C19.2778 35.8105 17.8404 37.1891 16.0658 37.1891ZM47.2224 42.965C47.2224 43.3038 46.9333 43.5811 46.58 43.5811H25.3807C25.0273 43.5811 24.7383 43.3038 24.7383 42.965V36.496C24.7383 36.1571 25.0273 35.8799 25.3807 35.8799H28.5927C28.946 35.8799 29.2351 36.1571 29.2351 36.496V39.2684H42.7256V36.496C42.7256 36.1571 43.0147 35.8799 43.368 35.8799H46.58C46.9333 35.8799 47.2224 36.1571 47.2224 36.496V42.965ZM55.8949 37.1891C54.1203 37.1891 52.6829 35.8105 52.6829 34.1086C52.6829 32.4066 54.1203 31.0281 55.8949 31.0281C57.6695 31.0281 59.1069 32.4066 59.1069 34.1086C59.1069 35.8105 57.6695 37.1891 55.8949 37.1891ZM12.5326 21.5556L18.3704 6.16096L18.4106 6.06084L18.4427 5.96072C18.531 5.70658 18.7719 5.53716 19.053 5.53716H53.3895L59.4442 21.5556H12.5326Z" fill="white"/>
</svg>
