<svg width="11" height="9" viewBox="0 0 11 9" fill="none" xmlns="http://www.w3.org/2000/svg">
<path d="M2.92603 6.10259C2.41567 6.50272 1.83035 6.79659 1.2046 6.96688C1.13565 6.9919 1.07608 7.03755 1.03399 7.09761C0.991889 7.15767 0.969306 7.22924 0.969306 7.30259C0.969306 7.37594 0.991889 7.44751 1.03399 7.50757C1.07608 7.56763 1.13565 7.61328 1.2046 7.6383C6.14746 9.66688 9.29031 6.53116 8.81174 3.05259L9.61174 1.39545H8.68317C7.52603 -0.0259816 4.4546 0.0454471 4.96174 3.07402C4.96174 3.07402 3.31889 3.36688 1.21889 1.30259C1.17031 1.25463 1.109 1.2216 1.04223 1.2074C0.975463 1.19321 0.906023 1.19845 0.842137 1.2225C0.778251 1.24655 0.722597 1.2884 0.681764 1.34311C0.640932 1.39781 0.616632 1.46307 0.611743 1.53116C0.389695 2.44391 0.500817 3.40595 0.925102 4.24404C1.34939 5.08213 2.05895 5.74121 2.92603 6.10259Z" stroke="white" stroke-linecap="round" stroke-linejoin="round"/>
</svg>
