<svg width="21" height="22" viewBox="0 0 21 22" fill="none" xmlns="http://www.w3.org/2000/svg">
<path d="M2.25 8.75C2.25 4.979 2.25 3.093 3.422 1.922C4.594 0.751 6.479 0.75 10.25 0.75H11.75C15.521 0.75 17.407 0.75 18.578 1.922C19.749 3.094 19.75 4.979 19.75 8.75V12.75C19.75 16.521 19.75 18.407 18.578 19.578C17.406 20.749 15.521 20.75 11.75 20.75H10.25C6.479 20.75 4.593 20.75 3.422 19.578C2.251 18.406 2.25 16.521 2.25 12.75V8.75Z" stroke="#D01443" stroke-width="1.5" stroke-linecap="round" stroke-linejoin="round"/>
<path d="M8.05 10.724C7.623 9.98 7.417 9.373 7.293 8.757C7.109 7.847 7.53 6.957 8.226 6.389C8.521 6.149 8.858 6.231 9.032 6.544L9.425 7.249C9.736 7.807 9.892 8.087 9.861 8.383C9.831 8.679 9.621 8.92 9.201 9.403L8.05 10.724ZM8.05 10.724C8.95011 12.2664 10.2336 13.5499 11.776 14.45M11.776 14.45C12.52 14.877 13.127 15.083 13.743 15.207C14.653 15.391 15.543 14.97 16.111 14.274C16.351 13.979 16.269 13.642 15.956 13.468L15.252 13.075C14.692 12.764 14.413 12.608 14.117 12.639C13.821 12.669 13.58 12.879 13.097 13.299L11.776 14.45ZM3.25 4.75H0.75M3.25 10.75H0.75M3.25 16.75H0.75" stroke="#D01443" stroke-width="1.5" stroke-linecap="round" stroke-linejoin="round"/>
</svg>
