<svg width="70" height="70" viewBox="0 0 70 70" fill="none" xmlns="http://www.w3.org/2000/svg">
<path d="M28.8487 29.8698L3.93871 19.1524C2.34447 18.4247 1.36534 17.2497 1.00132 15.6275C0.637306 14.0054 1.08502 12.5671 2.34447 11.3128L3.93871 9.72504C4.47012 9.19579 5.11845 8.79885 5.88368 8.53422C6.64892 8.26959 7.42876 8.20343 8.22323 8.33575L44.0936 14.6868L56.449 2.28241C57.9768 0.760803 59.854 0 62.0806 0C64.3072 0 66.1831 0.760803 67.7083 2.28241C69.2334 3.80401 69.9973 5.6736 70 7.89118C70.0027 10.1087 69.2387 11.977 67.7083 13.496L55.3529 25.9004L61.6302 61.5258C61.7631 62.3196 61.7126 63.1135 61.4788 63.9074C61.245 64.7013 60.8637 65.3629 60.3349 65.8921L58.7407 67.3806C57.4786 68.6376 56.0172 69.1007 54.3565 68.7699C52.6959 68.4391 51.5002 67.4799 50.7695 65.8921L40.108 41.0833L29.9447 51.1061L32.1368 63.4112C32.2697 64.0728 32.2365 64.7185 32.0372 65.3483C31.8379 65.9781 31.5058 66.5232 31.0408 66.9837L29.3469 68.6707C28.4169 69.5969 27.2717 69.9608 25.9113 69.7623C24.5509 69.5638 23.5372 68.8692 22.8703 67.6783L15.5966 54.2816L2.14519 47.0374C0.949509 46.3759 0.25203 45.3676 0.0527505 44.0128C-0.146529 42.6579 0.218818 41.516 1.14879 40.5872L2.84267 38.9002C3.30766 38.4371 3.85634 38.1063 4.48872 37.9078C5.1211 37.7093 5.7681 37.6763 6.42971 37.8086L18.6854 39.8925L28.8487 29.8698Z" fill="white"/>
</svg>
