<svg width="66" height="60" viewBox="0 0 66 60" fill="none" xmlns="http://www.w3.org/2000/svg">
<path d="M59.8274 4.01123C57.8594 2.32015 55.5224 1.11804 53.0057 0.502196C50.489 -0.113647 47.8632 -0.125916 45.3408 0.466381C40.27 1.58109 35.838 4.65054 32.9992 9.01377C30.1761 4.66469 25.7702 1.59695 20.7237 0.466381C18.2127 -0.139146 15.5964 -0.155246 13.0783 0.419331C10.5601 0.993909 8.20776 2.14369 6.20413 3.77932C0.990298 8.35118 -1.88061 18.4888 1.38629 28.7589C1.75587 29.8941 2.19586 30.9985 2.70624 32.0718C2.83824 32.3214 2.95923 32.5754 3.06923 32.8338C11.55 50.1936 31.1513 59.3374 32.0093 59.768C32.3281 59.9231 32.6781 60.0024 33.0322 59.9999C33.3864 60.0024 33.7364 59.9231 34.0552 59.768C34.8802 59.4036 54.6795 50.3262 63.0943 32.7676L63.3583 32.2044C63.8796 31.078 64.3306 29.9184 64.7112 28.7258C67.8131 18.7869 64.9752 8.64935 59.8274 4.01123ZM58.8044 30.2829C58.3424 31.3231 57.8144 32.328 57.2205 33.2976H46.2978C45.7543 33.2948 45.2199 33.1572 44.7421 32.8972C44.2643 32.6371 43.8578 32.2625 43.5589 31.8068L40.094 26.6386L32.7353 41.4143C32.5028 41.8822 32.1634 42.2882 31.7447 42.5992C31.326 42.9101 30.84 43.1171 30.3263 43.2033H29.7984C29.3618 43.2015 28.9299 43.1127 28.5277 42.9421C28.1255 42.7715 27.761 42.5225 27.4554 42.2094L18.5127 33.2645H8.91004C8.30286 32.1911 7.75288 31.0868 7.26009 29.9516C6.7493 28.8849 6.32981 27.7766 6.00613 26.6386H19.8987C20.333 26.6361 20.7635 26.7197 21.1655 26.8845C21.5676 27.0494 21.9333 27.2923 22.2416 27.5994L28.8414 34.2253L36.6951 18.4557C36.9561 17.9336 37.35 17.49 37.8368 17.17C38.3236 16.85 38.886 16.6649 39.467 16.6335C40.0406 16.5988 40.6133 16.715 41.1284 16.9706C41.6435 17.2263 42.0832 17.6126 42.4039 18.0912L48.0138 26.5724H60.2234C59.8626 27.8534 59.3896 29.0902 58.8044 30.2829Z" fill="white"/>
</svg>
