<svg width="8" height="8" viewBox="0 0 8 8" fill="none" xmlns="http://www.w3.org/2000/svg">
<path d="M1.79092 8H0.13229V2.65886H1.79092V8ZM0.960606 1.93029C0.430301 1.93029 0 1.49086 0 0.960571C0 0.705812 0.101206 0.461487 0.281355 0.281345C0.461503 0.101203 0.705837 0 0.960606 0C1.21537 0 1.45971 0.101203 1.63986 0.281345C1.82001 0.461487 1.92121 0.705812 1.92121 0.960571C1.92121 1.49086 1.49091 1.93029 0.960606 1.93029ZM7.99857 8H6.34366V5.4C6.34366 4.78029 6.33108 3.98571 5.48134 3.98571C4.61902 3.98571 4.48673 4.65886 4.48673 5.35543V8H2.82982V2.65886H4.42044V3.38743H4.44359C4.66502 2.96771 5.2059 2.52486 6.01279 2.52486C7.69142 2.52486 8 3.63029 8 5.066V8H7.99857Z" fill="white"/>
</svg>
