<svg width="20" height="20" viewBox="0 0 20 20" fill="none" xmlns="http://www.w3.org/2000/svg">
<path fill-rule="evenodd" clip-rule="evenodd" d="M9.99998 0C4.47717 0 0 4.47712 0 9.99998C0 15.5228 4.47717 20 9.99998 20C15.5229 20 20 15.5228 20 9.99998C20 4.47712 15.5229 0 9.99998 0ZM9.99998 18C5.58881 18 2.00001 14.4112 2.00001 9.99998C2.00001 5.58876 5.58876 2.00001 9.99998 2.00001C14.4112 2.00001 18 5.58876 18 9.99998C18 14.4112 14.4112 18 9.99998 18ZM11.2522 6C11.2522 6.72506 10.7243 7.25001 10.0101 7.25001C9.26713 7.25001 8.75217 6.72501 8.75217 5.98612C8.75217 5.27596 9.28106 4.75003 10.0101 4.75003C10.7243 4.75003 11.2522 5.27596 11.2522 6ZM9.0022 8.99999H11.0022V15H9.0022V8.99999Z" fill="#D01443"/>
</svg>
